<?xml version="1.0" encoding="UTF-8" standalone="no"?>
<!DOCTYPE svg PUBLIC "-//W3C//DTD SVG 1.1//EN" "http://www.w3.org/Graphics/SVG/1.1/DTD/svg11.dtd">
<svg xmlns="http://www.w3.org/2000/svg" version="1.1" viewBox="0.00 0.00 197.00 197.00">
<path stroke="#ffffff" fill="none" stroke-width="1.00" vector-effect="non-scaling-stroke" d="
  M 0.00 0.00
  L 197.00 0.00
  L 197.00 197.00
  L 0.00 197.00
  L 0.00 0.00"
/>
<path stroke="#808080" fill="none" stroke-width="1.00" vector-effect="non-scaling-stroke" d="
  M 111.81 11.22
  Q 98.94 9.10 85.93 10.58
  Q 85.53 10.63 85.55 11.03
  L 86.00 18.51
  Q 86.03 19.06 86.58 19.03
  C 93.91 18.71 101.89 18.28 108.77 19.46
  Q 135.32 24.06 148.88 46.18
  C 164.78 72.11 157.61 107.50 132.14 124.88
  Q 131.64 125.23 131.92 125.77
  L 135.47 132.52
  Q 135.77 133.09 136.29 132.73
  Q 153.21 121.08 161.56 100.30
  C 176.81 62.34 152.93 17.99 111.81 11.22"
/>
<path stroke="#808080" fill="none" stroke-width="1.00" vector-effect="non-scaling-stroke" d="
  M 72.50 78.00
  L 72.50 17.48
  Q 72.50 15.39 70.55 16.15
  Q 56.47 21.60 47.86 32.37
  Q 28.22 56.91 34.44 88.20
  C 40.83 120.37 65.84 141.90 98.93 143.02
  Q 99.50 143.04 99.50 142.46
  L 99.50 135.05
  Q 99.50 134.48 98.94 134.46
  C 73.04 133.26 53.71 118.73 45.21 94.89
  C 36.49 70.41 43.63 44.50 64.83 28.50
  A 0.27 0.27 0.0 0 1 65.26 28.72
  L 65.25 85.25
  A 0.50 0.50 0.0 0 0 65.75 85.75
  L 110.00 85.75
  Q 110.50 85.75 110.50 85.25
  L 110.50 79.00
  Q 110.50 78.50 110.00 78.50
  L 73.00 78.50
  Q 72.50 78.50 72.50 78.00"
/>
<path stroke="#808080" fill="none" stroke-width="1.00" vector-effect="non-scaling-stroke" d="
  M 108.68 107.28
  Q 108.34 106.51 109.13 106.23
  Q 125.00 100.41 131.71 87.46
  C 139.24 72.97 125.67 60.30 112.91 56.79
  C 103.96 54.33 89.67 55.59 78.80 55.24
  A 0.58 0.57 -9.8 0 0 78.24 56.02
  L 81.02 63.23
  Q 81.22 63.77 81.80 63.76
  C 90.58 63.71 102.69 62.64 110.45 64.84
  C 118.68 67.17 129.45 74.89 123.68 84.67
  Q 114.65 99.98 96.41 98.05
  A 0.55 0.54 81.3 0 0 95.86 98.81
  L 114.82 142.52
  Q 115.03 143.00 115.55 143.00
  L 123.70 143.00
  Q 124.24 143.00 124.03 142.50
  L 108.68 107.28"
/>
<path stroke="#808080" fill="none" stroke-width="1.00" vector-effect="non-scaling-stroke" d="
  M 93.75 174.76
  A 1.61 1.61 0.0 0 1 96.66 173.81
  L 102.00 181.13
  Q 102.25 181.47 102.67 181.47
  L 108.46 181.56
  A 0.37 0.37 0.0 0 0 108.76 180.96
  L 102.31 172.73
  Q 102.00 172.33 102.37 172.00
  C 103.36 171.11 104.54 170.48 105.18 169.41
  C 107.22 166.04 106.31 161.83 102.48 160.37
  C 98.94 159.02 92.62 159.78 88.71 159.73
  Q 88.22 159.72 88.22 160.21
  L 88.27 181.22
  Q 88.27 181.67 88.72 181.65
  L 93.25 181.45
  Q 93.75 181.43 93.75 180.93
  L 93.75 174.76"
/>
<path stroke="#808080" fill="none" stroke-width="1.00" vector-effect="non-scaling-stroke" d="
  M 37.99 177.50
  A 0.49 0.49 0.0 0 1 37.50 177.01
  L 37.50 160.24
  A 0.49 0.49 0.0 0 0 37.01 159.75
  L 32.33 159.75
  A 0.49 0.49 0.0 0 0 31.84 160.24
  L 31.71 180.95
  A 0.49 0.49 0.0 0 0 32.20 181.45
  L 47.24 181.66
  A 0.49 0.49 0.0 0 0 47.73 181.18
  L 47.76 177.99
  A 0.49 0.49 0.0 0 0 47.27 177.50
  L 37.99 177.50"
/>
<path stroke="#808080" fill="none" stroke-width="1.00" vector-effect="non-scaling-stroke" d="
  M 59.34 163.90
  A 0.48 0.48 0.0 0 1 59.86 163.43
  L 62.42 163.68
  A 0.48 0.48 0.0 0 0 62.94 163.22
  L 63.03 160.24
  A 0.48 0.48 0.0 0 0 62.55 159.75
  L 50.66 159.75
  A 0.48 0.48 0.0 0 0 50.18 160.25
  L 50.28 163.04
  A 0.48 0.48 0.0 0 0 50.76 163.50
  L 53.27 163.50
  A 0.48 0.48 0.0 0 1 53.75 163.98
  L 53.75 177.27
  A 0.48 0.48 0.0 0 1 53.27 177.75
  L 50.73 177.75
  A 0.48 0.48 0.0 0 0 50.25 178.23
  L 50.25 181.02
  A 0.48 0.48 0.0 0 0 50.73 181.50
  L 62.52 181.50
  A 0.48 0.48 0.0 0 0 63.00 181.02
  L 63.00 178.23
  A 0.48 0.48 0.0 0 0 62.52 177.75
  L 59.69 177.75
  A 0.48 0.48 0.0 0 1 59.21 177.27
  L 59.34 163.90"
/>
<path stroke="#808080" fill="none" stroke-width="1.00" vector-effect="non-scaling-stroke" d="
  M 71.91 163.75
  A 0.34 0.34 0.0 0 1 72.25 164.09
  L 72.25 181.16
  A 0.34 0.34 0.0 0 0 72.59 181.50
  L 77.66 181.50
  A 0.34 0.34 0.0 0 0 78.00 181.16
  L 78.00 164.23
  A 0.34 0.34 0.0 0 1 78.35 163.89
  L 84.40 164.05
  A 0.34 0.34 0.0 0 0 84.75 163.71
  L 84.75 160.09
  A 0.34 0.34 0.0 0 0 84.41 159.75
  L 65.84 159.75
  A 0.34 0.34 0.0 0 0 65.50 160.09
  L 65.50 163.41
  A 0.34 0.34 0.0 0 0 65.84 163.75
  L 71.91 163.75"
/>
<path stroke="#808080" fill="none" stroke-width="1.00" vector-effect="non-scaling-stroke" d="
  M 116.03 174.08
  L 126.81 173.96
  Q 127.24 173.96 127.31 173.53
  C 129.23 162.16 112.94 161.37 110.41 171.22
  C 107.65 182.01 119.73 183.46 126.86 180.99
  Q 127.25 180.85 127.25 180.44
  L 127.25 177.00
  Q 127.25 176.20 126.57 176.61
  C 122.75 178.92 117.19 180.15 115.50 174.81
  A 0.56 0.56 0.0 0 1 116.03 174.08"
/>
<path stroke="#808080" fill="none" stroke-width="1.00" vector-effect="non-scaling-stroke" d="
  M 138.84 175.58
  A 0.32 0.32 0.0 0 1 138.23 175.58
  L 134.69 165.15
  A 0.32 0.32 0.0 0 0 134.37 164.93
  L 129.63 165.13
  A 0.32 0.32 0.0 0 0 129.35 165.56
  L 135.33 181.29
  A 0.32 0.32 0.0 0 0 135.63 181.50
  L 141.27 181.50
  A 0.32 0.32 0.0 0 0 141.57 181.29
  L 147.65 165.43
  A 0.32 0.32 0.0 0 0 147.35 165.00
  L 142.59 165.00
  A 0.32 0.32 0.0 0 0 142.29 165.22
  L 138.84 175.58"
/>
<path stroke="#808080" fill="none" stroke-width="1.00" vector-effect="non-scaling-stroke" d="
  M 162.00 180.51
  L 162.00 181.08
  A 0.56 0.56 0.0 0 0 162.58 181.64
  L 166.79 181.44
  Q 167.25 181.42 167.25 180.96
  L 167.25 165.75
  Q 167.25 165.00 166.50 165.00
  L 162.50 165.00
  Q 162.00 165.00 162.00 165.50
  L 161.99 176.20
  A 1.12 1.11 73.3 0 1 161.49 177.13
  Q 159.12 178.70 156.65 177.39
  Q 156.12 177.11 156.10 176.51
  L 155.85 165.57
  Q 155.83 165.00 155.26 165.00
  L 151.31 165.00
  Q 150.80 165.00 150.78 165.51
  Q 150.41 173.59 150.76 177.24
  C 151.31 182.94 157.78 183.23 161.27 180.17
  A 0.44 0.44 0.0 0 1 162.00 180.51"
/>
<path stroke="#808080" fill="none" stroke-width="1.00" vector-effect="non-scaling-stroke" d="
  M 93.75 163.93
  L 93.75 169.09
  A 0.40 0.40 0.0 0 0 94.15 169.49
  L 96.88 169.49
  A 3.39 2.55 0.0 0 0 100.27 166.94
  L 100.27 166.08
  A 3.39 2.55 -0.0 0 0 96.88 163.53
  L 94.15 163.53
  A 0.40 0.40 0.0 0 0 93.75 163.93"
/>
<path stroke="#808080" fill="none" stroke-width="1.00" vector-effect="non-scaling-stroke" d="
  M 115.80 171.05
  L 122.08 170.94
  A 0.20 0.20 0.0 0 0 122.28 170.74
  L 122.28 170.60
  A 2.94 2.42 -1.0 0 0 119.30 168.23
  L 118.50 168.25
  A 2.94 2.42 -1.0 0 0 115.60 170.72
  L 115.60 170.86
  A 0.20 0.20 0.0 0 0 115.80 171.05"
/>
</svg>
